<svg xmlns="http://www.w3.org/2000/svg" width="57" height="64" fill="none" viewBox="0 0 57 64">
    <path fill="#D9D9D9" d="M56.269 35.996c.01 6.906-2.537 13.572-7.155 18.72-.343.381-.695.753-1.058 1.115-.715.714-1.472 1.385-2.267 2.01-3.887 3.124-8.544 5.15-13.484 5.868-.296.053-.588.093-.877.12-.735.09-1.481.15-2.227.171H27.186l-1.472-.09-.786-.08c-.282 0-.574-.071-.856-.121-2.537-.368-5.01-1.089-7.347-2.14-2.199-.977-4.262-2.234-6.137-3.739h-.05c-1.193-.952-2.305-2-3.326-3.134v-.05C2.42 49.316-.158 42.367.007 35.212.172 28.058 3.066 21.234 8.1 16.131c.847-.845 1.75-1.634 2.7-2.361 2.57-1.988 5.475-3.506 8.577-4.482h.16c.152-.06.307-.11.464-.15 4.276-1.251 8.788-1.474 13.167-.652 4.38.823 8.5 2.668 12.027 5.384l.12.09c.904.7 1.762 1.455 2.57 2.261 2.632 2.586 4.727 5.663 6.166 9.056 1.438 3.393 2.193 7.035 2.219 10.72z"/>
    <path fill="#FFDFBA" d="M48.829 54.72c-.341.38-.692.75-1.053 1.11-.712.71-1.465 1.379-2.257 2-3.868 3.11-8.502 5.127-13.419 5.84-.294.053-.585.093-.872.12-.733.09-1.475.15-2.217.17h-2.096l-1.464-.09-.782-.08c-.281 0-.572-.07-.853-.12-2.525-.366-4.986-1.083-7.311-2.13-2.189-.972-4.242-2.222-6.108-3.72h-.05c-1.187-.948-2.294-1.992-3.31-3.12.07-.26.16-.53.25-.78.407-1.092.997-2.106 1.746-3 1.06-1.267 2.402-2.267 3.921-2.92.261-.11.532-.21.803-.3l.642-.19.631-.14.642-.1c.436-.055.875-.085 1.314-.09.194.015.388.015.582 0l.461-.07h.12c.178-.033.352-.08.522-.14.179-.048.353-.112.521-.19.187-.078.368-.168.542-.27.123-.06.24-.13.351-.21.37-.255.706-.554 1.003-.89.068-.063.129-.133.18-.21l.311-.39c.426-.599.72-1.28.863-2 .06-.223.096-.45.11-.68.006-.067.006-.134 0-.2v-.4-1.03l-.17-.07-.16-.08c-.211-.09-.422-.19-.623-.3-.2-.11-.551-.29-.822-.45h-.08c-.26-.16-.512-.33-.762-.5-.251-.17-.271-.19-.401-.29-.13-.1-.261-.2-.392-.31-.13-.11-.37-.31-.551-.47-.18-.16-.642-.61-.933-.93-.29-.32-.411-.47-.602-.71-.19-.24-.4-.53-.591-.8-.07-.11-.15-.22-.221-.34-.07-.12-.25-.4-.361-.6-.11-.2-.19-.34-.28-.52-.11-.194-.207-.394-.292-.6-.1-.21-.19-.42-.27-.64v-.12c-.07-.19-.141-.38-.201-.57-.06-.16-.11-.324-.15-.49v-.32-.15c-.06-.22-.11-.45-.151-.68v-.14c0-.14-.05-.28-.07-.42-.02-.14 0-.07 0-.11 0-.04-.05-.35-.06-.53-.01-.18-.05-.49-.06-.74-.006-.057-.006-.114 0-.17v-.96h-.612c-.01.004-.02.007-.03.007-.01 0-.021-.003-.03-.007-.09-.01-.177-.03-.261-.06-.103-.02-.204-.051-.301-.09-.128-.043-.252-.097-.371-.16-.12-.057-.233-.124-.341-.2l-.22-.16c-.085-.062-.162-.132-.232-.21-.068-.062-.132-.129-.19-.2l-.13-.15-.271-.26-.08-.1v-.06c-.133-.228-.24-.47-.321-.72-.025-.01-.047-.026-.063-.047s-.026-.047-.028-.073c-.004-.043-.004-.087 0-.13-.002-.03-.002-.06 0-.09v-.14V10.63c-.02-.25-.02-.5 0-.75.021-.116.051-.23.09-.34.028-.099.061-.196.1-.29.012-.053.032-.104.061-.15l.04-.1c.07-.142.151-.28.24-.41.1-.151.214-.292.342-.42l.13-.17c.136-.143.287-.27.451-.38.086-.067.177-.127.271-.18l.381-.2.281-.11c.402-.145.826-.22 1.254-.22.09-.22.18-.44.29-.65l.081-.11c0-.07.07-.13.1-.19.012-.04.033-.078.06-.11.036-.087.08-.171.13-.25.014-.029.03-.056.051-.08v-.07c.012-.037.033-.072.06-.1.056-.105.12-.205.19-.3.04-.072.084-.142.131-.21l.12-.15c.253-.353.532-.687.833-1 .13-.15.27-.29.421-.42.08-.08.15-.16.23-.23.081-.07.312-.28.472-.4l.21-.25.221-.16c.13-.1.261-.2.401-.29l.382-.23.39-.24c.161-.09.322-.18.492-.26h.05l.17-.09c.39-.202.792-.379 1.204-.53l.19-.07.141-.05h.08l.372-.1h.13l.331-.07.542-.1c.185-.034.373-.057.561-.07h1.093c6.54 0 10.812 0 11.173.13.206.03.41.07.612.12l.32.07.442.12.29.09h.111c.026-.009.054-.009.08 0h.1c.174.054.345.118.512.19h.09l.11.05.161.07h.24l.212.12c.213.107.424.227.631.36l.482.31c.313.21.611.44.892.69.148.119.288.246.422.38.127.109.248.226.36.35l.151.16c.082.082.16.169.23.26.13.14.25.286.362.44l.3.4c.141.2.271.4.402.61.132.203.252.413.36.63.108.188.205.382.292.58.08.18.16.35.22.53l.15.39c.11.307.201.621.272.94 0 .14.07.28.1.42.03.14.09.45.12.68.172.582.296 1.178.371 1.78v12.87c0 .952-.379 1.865-1.054 2.538-.676.674-1.591 1.052-2.546 1.052v.43c.01.183.01.367 0 .55v.99c0 .21-.06.47-.1.7-.056.374-.133.745-.231 1.11 0 .2-.1.39-.16.58-.029.075-.052.152-.07.23-.021.079-.048.155-.081.23-.06.18-.12.35-.19.52-.07.17-.191.49-.302.73-.231.518-.5 1.02-.802 1.5-.11.18-.22.36-.34.53-.121.17-.382.54-.593.8-.21.26-.39.48-.601.71-.26.291-.534.568-.823.83l-.33.29c-.049.052-.103.099-.161.14l-.17.14-.292.24-.1.07-.4.29c-.252.17-.492.34-.753.5h-.08c-.291.17-.582.33-.883.48-.3.15-.592.29-.903.42V41.86c-.005.07-.005.14 0 .21-.01.08-.01.16 0 .24v.21c-.003.033-.003.067 0 .1v.11c.298 1.325 1.077 2.493 2.187 3.28l.18.13c.293.201.606.372.933.51.165.078.336.142.512.19.21.072.424.128.641.17l.462.07c.193.015.388.015.581 0 .443.004.885.034 1.324.09l.642.1.622.14c.492.129.975.292 1.444.49.311.13.612.28.903.43 1.6.862 2.945 2.127 3.901 3.67.14.21.271.44.401.67.13.23.231.46.341.69.08.162.151.33.211.5l.18.5c.048.117.088.237.12.36z"/>
    <path fill="#42434D" d="M45.208 11v12.87c0 .952-.38 1.865-1.054 2.538-.676.674-1.592 1.052-2.546 1.052v-7.64c0-.275-.102-.54-.287-.744-.186-.204-.441-.331-.716-.356-6.682-.386-13.158-2.45-18.825-6-.148-.092-.314-.148-.487-.164-.173-.016-.348.008-.51.071-.162.063-.306.164-.422.293-.116.129-.2.283-.246.45-.325 1.393-1.186 2.603-2.397 3.37-.86.447-1.801.719-2.768.8-.201.08-.374.218-.497.396-.123.178-.191.388-.195.604v8.94c-.543.003-1.08-.12-1.566-.362-.486-.241-.908-.594-1.232-1.028-.3-.41-.502-.881-.592-1.38-.09-.45-.07.57-.07-14.08 0-.982.388-1.925 1.081-2.623.693-.699 1.634-1.096 2.62-1.107.819-2.033 2.228-3.776 4.047-5.006C20.366.665 22.511.005 24.708 0c6.59 0 10.812 0 11.173.13 1.04.15 2.054.45 3.009.89.1.044.197.094.29.15 1.818.923 3.344 2.33 4.408 4.065 1.064 1.736 1.625 3.731 1.62 5.765z"/>
    <path fill="#D6F4FC" d="M48.829 54.72c-.341.38-.692.75-1.053 1.11-.712.71-1.465 1.379-2.257 2-3.868 3.11-8.502 5.127-13.419 5.84-.294.053-.585.093-.872.12-.733.09-1.475.15-2.217.17h-2.096l-1.464-.09-.782-.08c-.281 0-.572-.07-.853-.12-2.525-.366-4.986-1.083-7.311-2.13-2.189-.972-4.242-2.223-6.108-3.72h-.05c-1.187-.949-2.294-1.992-3.31-3.12.07-.26.16-.53.25-.78.407-1.092.997-2.107 1.746-3 1.06-1.267 2.402-2.267 3.921-2.92.261-.11.532-.21.803-.3l.642-.19.631-.14.642-.1c.436-.055.875-.086 1.314-.09.194.015.388.015.582 0l.461-.07h.12c.178-.033.352-.08.522-.14.179-.049.353-.112.521-.19.187-.078.368-.168.542-.27.123-.06.24-.13.351-.21.37-.256.706-.554 1.003-.89.068-.063.129-.133.18-.21l.311-.39 1.174 1.31 2.928 3.23 1.404 1.55.171.14c.222.143.488.203.75.17.262-.032.505-.157.684-.35l1.264-1.4.471-.53.1-.12.12-.13.272-.29 3.23-3.59c.362.515.81.964 1.323 1.33l.18.13c.293.2.606.372.933.51.165.078.336.141.512.19.21.072.424.129.642.17l.46.07c.194.015.389.015.583 0 .442.004.884.034 1.323.09l.642.1.622.14c.493.128.975.292 1.444.49.311.13.612.28.903.43 1.57.834 2.9 2.056 3.861 3.55.14.21.271.44.401.67.13.23.231.46.341.69.08.162.151.329.211.5l.18.5c.048.117.088.237.12.36z"/>
    <path fill="#E8F8FC" d="M36.644 46.74S35.26 53 35.27 52.93c-.035.188-.123.362-.254.502-.13.14-.299.24-.484.287-.186.047-.382.04-.564-.02-.182-.06-.343-.17-.464-.319-3.63-4.17-3.139-3.63-3.51-4l4.202-4.66c.611.883 1.46 1.576 2.448 2v.02zM21.63 44.76l4.101 4.55-3.41 4c-.119.148-.278.26-.459.32-.18.062-.375.07-.56.025-.186-.045-.354-.142-.486-.28-.132-.136-.222-.308-.26-.495l-1.364-6.14c.984-.427 1.828-1.12 2.438-2v.02z"/>
    <path fill="#FFE5C5" d="M41.608 27.89c-.097 3.557-1.582 6.937-4.14 9.42-2.558 2.481-5.986 3.87-9.555 3.87-3.57 0-6.998-1.389-9.556-3.87-2.557-2.483-4.043-5.863-4.14-9.42v-9.37c.003-.283.113-.554.309-.758.195-.205.462-.327.745-.342 1.142-.054 2.234-.485 3.104-1.226.87-.74 1.468-1.748 1.7-2.864.045-.167.13-.322.246-.45.116-.13.26-.23.422-.293.162-.063.337-.088.51-.072.172.017.34.073.487.165 5.666 3.553 12.142 5.617 18.825 6 .274.025.53.152.716.355.185.204.288.47.286.745l.04 8.11z"/>
    <path fill="#4D4E59" d="M38.408 4.15H28.86c-2.06.003-4.08.582-5.827 1.67-1.748 1.09-3.155 2.645-4.061 4.49-.108.208-.261.388-.449.529-.187.14-.404.236-.634.281-.848.169-1.61.624-2.158 1.29-.549.665-.85 1.499-.851 2.36v2.73c-.201.08-.374.218-.497.396-.123.178-.191.388-.195.604v6.55c0 .333-.106.658-.303.927s-.475.468-.793.57c-.318.1-.66.099-.977-.007-.317-.105-.592-.308-.786-.58-.218-.344-.374-.723-.461-1.12-.12-.54-.09.5-.09-14.21 0-.986.391-1.932 1.088-2.63.698-.7 1.644-1.095 2.633-1.1.819-2.033 2.228-3.776 4.047-5.006C20.366.665 22.511.005 24.708 0c6.54 0 10.812 0 11.173.13.935.143 1.849.405 2.718.78 0 0 .521.24.541.26.336.15.608.413.77.742.162.33.203.705.116 1.062-.087.356-.297.67-.592.89-.295.218-.658.326-1.026.306v-.02z"/>
    <path fill="#FFD6A6" d="M33.324 42.82c-1.71.735-3.55 1.114-5.411 1.114-1.861 0-3.702-.38-5.411-1.114.152-.743.203-1.504.15-2.26v-.05c3.353 1.38 7.118 1.38 10.47 0v.05c-.046.756.004 1.516.151 2.26h.05z"/>
    <path fill="#BDEFFC" d="M48.829 54.72c-.341.38-.692.75-1.053 1.11-.712.71-1.465 1.379-2.257 2-.529-2.164-1.749-4.099-3.476-5.511-1.728-1.412-3.87-2.226-6.102-2.32v-.15c0-.072.02-.162.06-.27 0-.12 0-.24.08-.39.081-.15.061-.29.101-.45l.06-.27.06-.24c-.004-.019-.004-.04 0-.06l.14-.64v-.18-.17c-.005-.056-.005-.113 0-.17-.004-.076-.004-.153 0-.23.167.074.338.138.512.19.21.073.425.13.642.17l.462.07c.193.01.388.01.581 0 .443.003.886.037 1.324.1l.642.1.622.14c.492.13.975.293 1.444.49.308.128.61.271.903.43 1.62.81 2.999 2.026 4.001 3.53.14.21.271.44.401.67.13.23.231.46.342.69.08.163.15.33.21.5l.18.5c.048.118.089.238.12.36z"/>
    <path fill="#F1FAFC" d="M21.71 50.56c.21.93.431 1.93.611 2.77-.119.148-.278.26-.459.32-.18.062-.375.07-.56.025-.186-.045-.354-.142-.486-.28-.132-.136-.222-.308-.26-.495-.531-2.41-1.354-6.13-1.364-6.16.984-.427 1.828-1.12 2.438-2l1.173 1.32c-.507.618-.869 1.34-1.058 2.116-.189.776-.201 1.584-.035 2.364v.02z"/>
    <path fill="#fff" fill-opacity=".26" d="M24.91 15.72c-.081.924-.347 1.823-.783 2.643-.436.819-1.033 1.543-1.755 2.127-1.256.947-2.273 2.173-2.97 3.582-.696 1.408-1.053 2.958-1.042 4.528V32c.033.405-.082.808-.323 1.135-.242.326-.594.555-.992.642-.397.088-.813.03-1.17-.165-.358-.194-.633-.511-.774-.892-.59-1.55-.892-3.193-.893-4.85v-9.35c.002-.282.112-.553.308-.758.196-.204.462-.327.745-.342 1.142-.055 2.233-.487 3.102-1.227.87-.74 1.468-1.747 1.702-2.863.044-.168.127-.324.243-.454.115-.13.26-.231.423-.295.162-.063.338-.088.511-.07.174.017.341.075.488.17.702.44 1.454.89 2.277 1.33.308.157.56.406.722.712.162.306.225.654.18.997z"/>
    <path fill="#FEED00" d="M26.915 64h2.006c.742 0 1.484-.08 2.216-.17.288 0 .579-.04.873-.12l-2.006-14.29-1.264 1.4c-.18.194-.422.318-.684.35-.262.034-.528-.027-.75-.17l-.13-.09v-.05l-1.404-1.55-1.936 14.4c.28.05.572.09.852.12l.783.08 1.444.09z"/>
    <path fill="#FFCB30" d="M27.176 50.92l-1.745 13-.783-.08c-.28 0-.571-.07-.852-.12l1.936-14.4 1.404 1.55.04.05z"/>
</svg>
